<svg xmlns="http://www.w3.org/2000/svg" viewBox="0 0 386 86"><path class="fill-orange" d="M60.5 18L49.9.1-.2 86.4s3.5-2.7 9.3-6.4c2.9-8.6 14.8-36.8 51.4-62z"></path><path class="fill-vert" d="M67.6 30.1c-7.8 1.4-32.2 8.7-54.4 47.3C34 64.7 73.8 45.6 92.2 72L67.6 30.1z"></path><path class="fill-texte" d="M129.2 57.4c-.7 1.2-2 2.2-3.8 3-1.8.8-3.7 1.2-5.7 1.2-3.7 0-6.7-.9-8.8-2.8-2.1-1.9-3.2-4.5-3.2-7.9 0-4 1.5-7.1 4.5-9.4 3-2.3 7.3-3.4 12.8-3.4.9 0 2.1.2 3.4.5 0-4.1-2.6-6.1-7.7-6.1-3 0-5.6.5-7.7 1.5l-1.8-6.3c2.8-1.3 6.1-2 10-2 5.3 0 9.2 1.2 11.6 3.6 2.5 2.4 3.7 6.9 3.7 13.6v7.4c0 4.6.9 7.5 2.8 8.7-.7 1.2-1.4 1.9-2.2 2.1-.8.3-1.8.4-2.8.4-1.2 0-2.2-.4-3.1-1.3-1.1-.9-1.7-1.8-2-2.8zm-.8-12.8c-1.4-.3-2.4-.4-3.1-.4-6.4 0-9.6 2.1-9.6 6.3 0 3.1 1.8 4.7 5.4 4.7 4.9 0 7.3-2.4 7.3-7.3v-3.3zM149.6 32.8h-4v-6.5h4v-7l8-3v10h9.5v6.5h-9.5V48c0 2.5.4 4.2 1.2 5.3.8 1 2.1 1.5 4.1 1.5 1.9 0 3.8-.5 5.4-1.6v7.4c-1.9.6-4.5 1-8 1-3.4 0-6.1-1-7.9-2.9-1.8-1.9-2.8-4.7-2.8-8.3V32.8zM175.6 43.5c0-5.3 1.5-9.6 4.6-12.9 3-3.3 7-5 12-5 5.2 0 9.3 1.6 12.2 4.8 2.9 3.2 4.3 7.5 4.3 13.1 0 5.5-1.5 9.9-4.4 13.1-3 3.2-7 4.9-12.1 4.9-5.2 0-9.3-1.6-12.2-4.9-3-3.3-4.4-7.7-4.4-13.1zm8.3 0c0 7.6 2.7 11.4 8.2 11.4 2.5 0 4.5-1 6-3s2.2-4.8 2.2-8.5c0-7.5-2.7-11.3-8.2-11.3-2.5 0-4.5 1-6 3-1.5 2.1-2.2 4.8-2.2 8.4zM219.8 13.5l8-1.9v38.8c0 4.3 1.3 6.8 3.8 7.6-1.2 2.4-3.4 3.6-6.4 3.6-3.7 0-5.5-2.5-5.5-7.6V13.5z"></path><path class="fill-texte" d="M260.6 22.5l-.5 1.4c-.5-.4-1.3-.6-2.5-.6-1.1 0-1.9.5-2.5 1.4-.6.9-1 2.1-1 3.5s.3 2.5 1 3.3c.7.8 1.5 1.3 2.5 1.3 1.1 0 2-.4 2.6-1.2l.9 1.2c-.9.9-2.2 1.4-3.7 1.4-1.6 0-2.8-.6-3.7-1.7-.9-1.1-1.3-2.6-1.3-4.5 0-1.8.5-3.3 1.4-4.5 1-1.2 2.2-1.8 3.7-1.8 1.3.1 2.3.4 3.1.8zM263.1 29.6c0-1.4.4-2.4 1.1-3.3.7-.8 1.7-1.2 2.9-1.2 1.3 0 2.2.4 2.9 1.2.7.8 1 1.9 1 3.3s-.4 2.5-1.1 3.3c-.7.8-1.7 1.2-2.9 1.2s-2.2-.4-2.9-1.2c-.7-.8-1-1.9-1-3.3zm1.6 0c0 2.2.8 3.3 2.3 3.3.7 0 1.3-.3 1.7-.9.4-.6.6-1.4.6-2.4 0-2.2-.8-3.3-2.3-3.3-.7 0-1.3.3-1.7.9-.4.6-.6 1.4-.6 2.4zM278.9 34v-5.1c0-.9-.1-1.6-.4-2-.3-.4-.8-.6-1.4-.6-.4 0-.7.1-1.1.3-.4.2-.7.5-.9.8V34h-1.5v-8.7h1.1l.5 1.1c.5-.9 1.3-1.3 2.5-1.3 1.9 0 2.9 1.2 2.9 3.5V34h-1.7zM282.9 33.5l.5-1.5c.9.6 1.6.9 2.1.9 1 0 1.4-.4 1.4-1.2 0-.6-.5-1.1-1.4-1.5-.7-.3-1.2-.6-1.4-.7-.2-.2-.5-.4-.6-.6-.2-.2-.3-.4-.4-.7-.1-.2-.1-.5-.1-.8 0-.7.3-1.3.8-1.7.5-.4 1.2-.6 2.1-.6.6 0 1.4.2 2.4.6l-.4 1.4c-.6-.5-1.2-.7-1.8-.7-.4 0-.7.1-.9.3s-.4.4-.4.7c0 .6.3 1 1 1.3l1.1.5c.7.3 1.2.7 1.5 1.1.3.4.5.9.5 1.5 0 .8-.3 1.4-.8 1.8-.5.4-1.3.7-2.3.7a6.2 6.2 0 0 1-2.9-.8zM298.4 29.8h-6.3c0 1 .3 1.8.8 2.4.5.5 1.1.7 1.9.7.9 0 1.6-.3 2.2-.8l.7 1.1c-.2.2-.6.4-1.1.6-.6.2-1.3.3-2.1.3-1.1 0-2-.4-2.8-1.1-.9-.8-1.3-1.9-1.3-3.3s.4-2.6 1.3-3.5c.8-.8 1.7-1.2 2.8-1.2a4 4 0 0 1 2.9 1.1c.7.7 1 1.6 1 2.7.1.4.1.7 0 1zm-3.7-3.4c-.7 0-1.3.2-1.7.7-.4.4-.7 1-.8 1.6h4.9c0-.6-.2-1.2-.6-1.6-.5-.5-1.1-.7-1.8-.7zM301.8 34v-7.4h-1.2v-1.3h2.7V34h-1.5zm.8-12c.3 0 .5.1.7.3.2.2.3.4.3.7 0 .3-.1.5-.3.7-.2.2-.4.3-.7.3a.9.9 0 0 1-.7-.3.9.9 0 0 1-.3-.7c0-.3.1-.5.3-.7.2-.2.5-.3.7-.3zM306.7 31.5v-9.9h1.5v9.6c0 .5.1.8.4 1.1.3.3.6.4 1.1.4v1.4c-2 .1-3-.8-3-2.6zM311.8 33.5l.5-1.5c.9.6 1.6.9 2.1.9 1 0 1.4-.4 1.4-1.2 0-.6-.5-1.1-1.4-1.5-.7-.3-1.2-.6-1.4-.7-.2-.2-.5-.4-.6-.6-.2-.2-.3-.4-.4-.7-.1-.2-.1-.5-.1-.8 0-.7.3-1.3.8-1.7.5-.4 1.2-.6 2.1-.6.6 0 1.4.2 2.4.6l-.4 1.4c-.6-.5-1.2-.7-1.8-.7-.4 0-.7.1-.9.3-.3.2-.4.4-.4.7 0 .6.3 1 1 1.3l1.1.5c.7.3 1.2.7 1.5 1.1.3.4.5.9.5 1.5 0 .8-.3 1.4-.8 1.8-.5.4-1.3.7-2.3.7a6.2 6.2 0 0 1-2.9-.8zM335.3 26.6v.8c0 .5-.1 1.1-.2 1.8s-.4 1.3-.7 1.9l3.1 3h-2l-1.9-1.8c-.6.8-1.3 1.3-1.9 1.6-.7.3-1.3.5-2 .5-1.1 0-2.1-.3-2.8-1-.7-.7-1.1-1.5-1.1-2.6 0-.5.1-.9.2-1.3s.3-.7.5-.9c.2-.3.4-.5.7-.7l.9-.6c-.6-.4-1-.8-1.3-1.2-.3-.4-.4-.9-.4-1.5 0-.4.1-.7.2-1 .1-.3.4-.6.6-.9.3-.3.6-.5 1.1-.6.4-.2.9-.2 1.5-.2.9 0 1.7.2 2.3.7.6.5.9 1.1.9 1.8 0 .2 0 .5-.1.8-.1.3-.2.6-.3.8-.2.3-.4.5-.7.8-.3.2-.7.5-1.2.6l3 3c.1-.2.1-.5.2-.7 0-.3.1-.5.1-.8v-1-1h1.3zm-2.5 4.8l-3.9-3.8c-.2.1-.3.2-.5.3-.2.1-.3.3-.5.5s-.3.5-.4.8c-.1.3-.1.6-.1 1 0 .8.2 1.4.7 1.9.5.5 1.1.7 2 .7.5 0 1-.1 1.5-.4.5-.1.9-.5 1.2-1zm-1.6-7.1c0-.5-.2-.9-.5-1.2-.3-.3-.7-.4-1.2-.4s-.9.2-1.2.5c-.3.3-.5.7-.5 1.2 0 .4.1.8.3 1.1.2.3.7.7 1.4 1.1.5-.2.9-.5 1.2-.8.4-.4.5-.9.5-1.5zM255.3 53.9h-2.4v-12c1.5-.1 2.5-.1 2.9-.1 1.7 0 3 .5 4 1.5s1.5 2.4 1.5 4.1c0 4.3-2 6.5-6 6.5zm-.7-10.5v8.9c.4.1.8.1 1.4.1 1.1 0 2-.4 2.7-1.3.7-.9 1-2.1 1-3.6 0-2.8-1.3-4.3-3.8-4.3-.3.1-.7.1-1.3.2zM271.3 49.7H265c0 1 .3 1.8.8 2.4.5.5 1.1.7 1.9.7.9 0 1.6-.3 2.2-.8l.7 1.1c-.2.2-.6.4-1.1.6-.6.2-1.3.3-2.1.3-1.1 0-2-.4-2.8-1.1-.9-.8-1.3-1.9-1.3-3.3s.4-2.6 1.3-3.5c.8-.8 1.7-1.2 2.8-1.2a4 4 0 0 1 2.9 1.1c.7.7 1 1.6 1 2.7.1.4.1.7 0 1zm-3.8-3.4c-.7 0-1.3.2-1.7.7-.4.4-.7 1-.8 1.6h4.9c0-.6-.2-1.2-.6-1.6-.5-.5-1.1-.7-1.8-.7zm2-5.6l-1.8 2.7h-1.2l1.4-2.7h1.6zM277 54.1h-.4l-3.7-8.9h1.7l2.3 6.1 2.4-6.1h1.6l-3.9 8.9zM290.3 49.7H284c0 1 .3 1.8.8 2.4.5.5 1.1.7 1.9.7.9 0 1.6-.3 2.2-.8l.7 1.1c-.2.2-.6.4-1.1.6-.6.2-1.3.3-2.1.3-1.1 0-2-.4-2.8-1.1-.9-.8-1.3-1.9-1.3-3.3s.4-2.6 1.3-3.5c.8-.8 1.7-1.2 2.8-1.2a4 4 0 0 1 2.9 1.1c.7.7 1 1.6 1 2.7.1.4.1.7 0 1zm-3.8-3.4c-.7 0-1.3.2-1.7.7-.4.4-.7 1-.8 1.6h4.9c0-.6-.2-1.2-.6-1.6-.5-.5-1.1-.7-1.8-.7zM293 51.4v-9.9h1.5v9.6c0 .5.1.8.4 1.1.3.3.6.4 1.1.4V54c-2 .1-3-.8-3-2.6zM298.1 49.5c0-1.4.4-2.4 1.1-3.3.7-.8 1.7-1.2 2.9-1.2 1.3 0 2.2.4 2.9 1.2.7.8 1 1.9 1 3.3s-.4 2.5-1.1 3.3c-.7.8-1.7 1.2-2.9 1.2s-2.2-.4-2.9-1.2c-.7-.8-1-1.9-1-3.3zm1.6 0c0 2.2.8 3.3 2.3 3.3.7 0 1.3-.3 1.7-.9.4-.6.6-1.4.6-2.4 0-2.2-.8-3.2-2.3-3.2-.7 0-1.3.3-1.7.9-.4.5-.6 1.3-.6 2.3zM310 53.4v3.9h-1.5V45.1h1.5v.7c.6-.6 1.3-.9 2.1-.9 1.2 0 2.2.4 2.9 1.2.7.8 1 1.9 1 3.4 0 1.3-.3 2.4-1 3.3-.7.8-1.7 1.3-3 1.3-.4 0-.8-.1-1.2-.2-.4-.2-.7-.3-.8-.5zm0-6.4v5.1c.1.1.3.3.6.4.3.1.6.2.9.2 1.9 0 2.9-1.1 2.9-3.3 0-1.1-.2-1.9-.7-2.4-.5-.5-1.2-.8-2.2-.8-.2 0-.5.1-.8.2-.3.2-.5.4-.7.6zM320.1 53.4v3.9h-1.5V45.1h1.5v.7c.6-.6 1.3-.9 2.1-.9 1.2 0 2.2.4 2.9 1.2.7.8 1 1.9 1 3.4 0 1.3-.3 2.4-1 3.3-.7.8-1.7 1.3-3 1.3-.4 0-.8-.1-1.2-.2-.4-.2-.6-.3-.8-.5zm0-6.4v5.1c.1.1.3.3.6.4.3.1.6.2.9.2 1.9 0 2.9-1.1 2.9-3.3 0-1.1-.2-1.9-.7-2.4-.5-.5-1.2-.8-2.2-.8-.2 0-.5.1-.8.2-.2.2-.5.4-.7.6zM336.1 49.7h-6.3c0 1 .3 1.8.8 2.4.5.5 1.1.7 1.9.7.9 0 1.6-.3 2.2-.8l.7 1.1c-.2.2-.6.4-1.1.6-.6.2-1.3.3-2.1.3-1.1 0-2-.4-2.8-1.1-.9-.8-1.3-1.9-1.3-3.3s.4-2.6 1.3-3.5c.8-.8 1.7-1.2 2.8-1.2a4 4 0 0 1 2.9 1.1c.7.7 1 1.6 1 2.7.2.4.1.7 0 1zm-3.7-3.4c-.7 0-1.3.2-1.7.7-.4.4-.7 1-.8 1.6h4.9c0-.6-.2-1.2-.6-1.6-.5-.5-1.1-.7-1.8-.7zM348.9 53.9v-5.5c0-1.4-.6-2.1-1.8-2.1-.4 0-.7.1-1.1.3-.3.2-.6.5-.7.8v6.5h-1.5v-6.2c0-.4-.2-.8-.5-1-.3-.2-.8-.4-1.3-.4-.3 0-.6.1-1 .4-.4.2-.6.5-.8.8V54h-1.5v-8.7h1l.5 1c.6-.8 1.3-1.2 2.2-1.2 1.3 0 2.1.4 2.6 1.2.2-.3.5-.6 1-.8.5-.2 1-.3 1.5-.3.9 0 1.6.3 2.1.8s.7 1.3.7 2.3v5.9h-1.4zM360.8 49.7h-6.3c0 1 .3 1.8.8 2.4.5.5 1.1.7 1.9.7.9 0 1.6-.3 2.2-.8l.7 1.1c-.2.2-.6.4-1.1.6-.6.2-1.3.3-2.1.3-1.1 0-2-.4-2.8-1.1-.9-.8-1.3-1.9-1.3-3.3s.4-2.6 1.3-3.5c.8-.8 1.7-1.2 2.8-1.2a4 4 0 0 1 2.9 1.1c.7.7 1 1.6 1 2.7.1.4.1.7 0 1zm-3.7-3.4c-.7 0-1.3.2-1.7.7-.4.4-.7 1-.8 1.6h4.9c0-.6-.2-1.2-.6-1.6-.5-.5-1.1-.7-1.8-.7zM368.8 53.9v-5.1c0-.9-.1-1.6-.4-2-.3-.4-.8-.6-1.4-.6-.4 0-.7.1-1.1.3-.4.2-.7.5-.9.8v6.5h-1.5v-8.7h1.1l.5 1.1c.5-.9 1.3-1.3 2.5-1.3 1.9 0 2.9 1.2 2.9 3.5v5.4h-1.7zM373.9 46.4h-1v-1.2h1v-1.8l1.5-.6v2.4h2.4v1.2h-2.4v4.4c0 .7.1 1.3.4 1.6.2.3.6.5 1.2.5.4 0 .8-.1 1.2-.3l.2 1.4c-.6.2-1.3.2-2.1.2-.7 0-1.3-.3-1.8-.8s-.7-1.2-.7-2v-5zM380.3 53.4l.5-1.5c.9.6 1.6.9 2.1.9 1 0 1.4-.4 1.4-1.2 0-.6-.5-1.1-1.4-1.5-.7-.3-1.2-.6-1.4-.7-.2-.2-.5-.4-.6-.6-.2-.2-.3-.4-.4-.7-.1-.2-.1-.5-.1-.8 0-.7.3-1.3.8-1.7.5-.4 1.2-.6 2.1-.6.6 0 1.4.2 2.4.6l-.4 1.4c-.6-.5-1.2-.7-1.8-.7-.4 0-.7.1-.9.3-.3.2-.4.4-.4.7 0 .6.3 1 1 1.3l.8.4c.7.3 1.2.7 1.5 1.1.3.4.5.9.5 1.5 0 .8-.3 1.4-.8 1.8-.5.4-1.3.7-2.3.7-.9 0-1.8-.3-2.6-.7z"></path></svg>